<?xml version="1.0" encoding="UTF-8"?>
<svg version="1.1" xmlns="http://www.w3.org/2000/svg" width="422" height="306">
<path d="M0 0 C139.26 0 278.52 0 422 0 C422 100.98 422 201.96 422 306 C282.74 306 143.48 306 0 306 C0 205.02 0 104.04 0 0 Z " fill="#FEF5F4" transform="translate(0,0)"/>
<path d="M0 0 C4.12234326 2.534424 7.33553745 4.34566796 12.3125 3.75 C13.50875 3.42 14.705 3.09 15.9375 2.75 C16.9275 -0.22 17.9175 -3.19 18.9375 -6.25 C19.9275 -6.25 20.9175 -6.25 21.9375 -6.25 C22.53542255 4.9643696 22.94036327 15.61636481 15.2578125 24.74609375 C9.00310847 30.54211948 2.26260255 31.15012956 -6.00390625 31 C-12.85412389 30.44008438 -18.1089226 26.14658918 -22.5144043 21.08032227 C-23.93282082 19.28089031 -25.31833015 17.46216293 -26.6875 15.625 C-30.72779425 10.02567145 -30.72779425 10.02567145 -36.0625 5.75 C-39.22730542 5.36247281 -41.1826813 5.26751878 -44 6.8125 C-45.31426096 8.86639521 -45.31426096 8.86639521 -45.1875 12.0625 C-43.30863309 18.22100819 -39.38559146 20.47289232 -34 23.43359375 C-26.64500029 27.05464076 -19.17252905 29.79750376 -11.375 32.3125 C2.25026957 36.7262855 14.76721641 41.91218421 23.5625 53.875 C26.76823775 60.36244084 26.02343828 70.27150853 24 77.0625 C20.3650092 84.97293236 12.74168364 92.35512063 4.76953125 95.64453125 C-5.43268576 99.1966545 -14.2597671 98.73660391 -24.04296875 94.26171875 C-26.11858835 93.22256637 -28.18326533 92.16135695 -30.23828125 91.08203125 C-37.76184265 86.89285448 -37.76184265 86.89285448 -46.0625 86.75 C-48.08201062 87.68597315 -48.08201062 87.68597315 -49.0625 89.75 C-49.79291853 93.36023099 -49.79291853 93.36023099 -50.0625 96.75 C-51.3825 96.75 -52.7025 96.75 -54.0625 96.75 C-54.44406762 85.23231061 -54.7616703 75.16009704 -47.0625 65.75 C-40.52366014 60.22864552 -35.23655511 59.29735156 -26.6875 59.4375 C-15.77750367 60.37801692 -9.87608137 67.59210701 -3.04296875 75.375 C1.86542902 81.35518554 1.86542902 81.35518554 8.5625 84.75 C11.82446139 85.03245123 11.82446139 85.03245123 13.875 83.625 C15.35273807 81.01722693 15.50141056 79.71053044 14.9375 76.75 C5.66211173 65.08096314 -10.19270678 60.62479916 -23.8125 56.25 C-35.75939211 52.36847568 -45.31107956 48.01389507 -52.15625 36.98828125 C-55.52376217 29.80113721 -55.33827177 20.34154576 -53.25390625 12.83984375 C-49.42389362 4.26538641 -42.27658138 -1.636289 -33.88671875 -5.55859375 C-21.79908627 -10.13998764 -10.48011946 -6.44328092 0 0 Z " fill="#040404" transform="translate(310.0625,99.25)"/>
<path d="M0 0 C2.37016858 1.3961267 4.71985342 2.80971775 7.0625 4.25 C11.18484326 6.784424 14.39803745 8.59566796 19.375 8 C20.57125 7.67 21.7675 7.34 23 7 C23.99 4.03 24.98 1.06 26 -2 C26.99 -2 27.98 -2 29 -2 C29.4884015 9.69450258 29.62358293 19.2067881 22.25 28.9375 C17.18328813 34.26823408 11.73516076 35.17396997 4.5625 35.5 C-2.96869635 35.28258671 -7.69905262 33.20185703 -13.08203125 27.98046875 C-17.16384343 23.52403518 -20.80897462 18.73376551 -24.359375 13.84765625 C-26.79614519 11.10338887 -28.94901587 10.1281688 -32.5625 9.6875 C-34.99993085 9.84375002 -34.99993085 9.84375002 -36.875 11.0625 C-38.26333722 13.10463578 -38.26333722 13.10463578 -38.125 16.3125 C-36.24613309 22.47100819 -32.32309146 24.72289232 -26.9375 27.68359375 C-19.58250029 31.30464076 -12.11002905 34.04750376 -4.3125 36.5625 C9.31276957 40.9762855 21.82971641 46.16218421 30.625 58.125 C33.83073775 64.61244084 33.08593828 74.52150853 31.0625 81.3125 C27.4275092 89.22293236 19.80418364 96.60512063 11.83203125 99.89453125 C1.62981424 103.4466545 -7.1972671 102.98660391 -16.98046875 98.51171875 C-19.05608835 97.47256637 -21.12076533 96.41135695 -23.17578125 95.33203125 C-30.7013032 91.24263407 -30.7013032 91.24263407 -39 91 C-40.485 91.495 -40.485 91.495 -42 92 C-42.33 94.97 -42.66 97.94 -43 101 C-44.32 101 -45.64 101 -47 101 C-47.66668136 89.88864407 -48.09912232 80.31105938 -41 71 C-34.36274109 64.51273564 -28.63500037 63.63279804 -19.51171875 63.7265625 C-11.30013219 64.36595189 -5.59341167 69.24887935 0 75 C2.33831906 77.8051982 4.60720118 80.64489222 6.82421875 83.546875 C9.07746078 86.08733459 10.9300983 87.56705538 14 89 C17.73093378 88.77752165 17.73093378 88.77752165 21 88 C21.94271002 84.74360341 21.94271002 84.74360341 22 81 C14.1781668 70.31016129 -1.1648729 64.9335398 -13.4375 61.5625 C-25.96676241 58.08715816 -37.2159495 53.29047239 -44.875 42.3125 C-48.4277532 35.00961842 -48.27911866 24.77953606 -46.19921875 17.0078125 C-42.31800149 8.44512699 -35.53404292 2.89368135 -27.125 -1 C-17.92433975 -4.45608558 -8.97109575 -3.94728213 0 0 Z " fill="#040404" transform="translate(142,95)"/>
<path d="M0 0 C3.01150079 0.63144371 6.00539182 1.29512221 9 2 C9.74636719 2.17144531 10.49273437 2.34289062 11.26171875 2.51953125 C22.21631888 5.40232076 36.3946991 11.38065898 44 20 C45.3125 23.6875 45.3125 23.6875 45 27 C43.5 29.5 43.5 29.5 41 31 C36.25011965 31.08796075 33.17763879 29.99748698 29.65625 26.78515625 C27.51418155 24.47637021 25.58410907 22.02815953 23.625 19.5625 C18.12081301 12.68689942 12.13920943 6.87821349 3.10546875 5.5859375 C2.14253906 5.51632813 1.17960937 5.44671875 0.1875 5.375 C-0.78832031 5.30023438 -1.76414062 5.22546875 -2.76953125 5.1484375 C-3.50558594 5.09945312 -4.24164063 5.05046875 -5 5 C-5 4.67 -5 4.34 -5 4 C-3.35 4 -1.7 4 0 4 C0 2.68 0 1.36 0 0 Z " fill="#F6EFEF" transform="translate(120,154)"/>
<path d="M0 0 C14.37402174 3.70024322 34.26662691 8.89994036 43 22 C42.8125 25.5625 42.8125 25.5625 42 29 C39 31 39 31 35.625 30.875 C29.50564346 29.39791394 26.38286137 25.46816429 22.625 20.625 C16.68299975 13.24668843 10.97490921 6.96270736 1.11328125 5.6015625 C-1.5911065 5.34532089 -4.28744726 5.1422496 -7 5 C-7 4.67 -7 4.34 -7 4 C-5.02 3.67 -3.04 3.34 -1 3 C-0.67 2.01 -0.34 1.02 0 0 Z " fill="#F5EEED" transform="translate(283,154)"/>
<path d="M0 0 C7.18414395 1.29314591 11.00272464 7.76299697 15.2421875 13.1953125 C17.3671651 15.86696484 19.61161452 18.25290253 22.125 20.5625 C22.85847656 21.243125 23.59195312 21.92375 24.34765625 22.625 C27.63599511 24.91897479 29.91554938 25.26647245 33.875 25.6875 C35.96606874 25.91723625 38.05389142 26.19391288 40.125 26.5625 C41.37046405 29.05342811 40.9017578 29.97330733 40.125 32.5625 C36.77861007 31.6039863 33.45149997 30.58781749 30.125 29.5625 C29.45484863 29.35850586 28.78469727 29.15451172 28.09423828 28.94433594 C-1.16737609 19.95585882 -1.16737609 19.95585882 -6.875 9.5625 C-7.5 6.875 -7.5 6.875 -6.875 4.5625 C-4.79050193 1.5960989 -3.57168811 0.69880854 0 0 Z " fill="#F3ECEB" transform="translate(270.875,103.4375)"/>
<path d="M0 0 C6.84753271 2.00703545 10.57255005 6.98478681 14.5625 12.5625 C18.82969846 18.32084144 22.64826905 22.73692302 29.625 25.0625 C31.51712737 25.28429785 33.41384472 25.46864015 35.3125 25.625 C36.30636719 25.70878906 37.30023438 25.79257813 38.32421875 25.87890625 C39.46310547 25.96978516 39.46310547 25.96978516 40.625 26.0625 C40.625 26.3925 40.625 26.7225 40.625 27.0625 C37.655 27.5575 37.655 27.5575 34.625 28.0625 C34.625 28.7225 34.625 29.3825 34.625 30.0625 C20.73074761 26.98323325 2.64674536 22.64491998 -6.41015625 10.7265625 C-7.375 9.0625 -7.375 9.0625 -8 6.375 C-6.74433364 1.72903448 -4.81495319 0.0891658 0 0 Z " fill="#F4EDEC" transform="translate(110.375,103.9375)"/>
<path d="M0 0 C0.639375 0.680625 1.27875 1.36125 1.9375 2.0625 C8.17660914 8.30160914 13.74755214 12.826269 22.6875 13.5625 C23.68136719 13.64628906 24.67523438 13.73007813 25.69921875 13.81640625 C26.45847656 13.87699219 27.21773437 13.93757812 28 14 C28 14.33 28 14.66 28 15 C26.02 15.33 24.04 15.66 22 16 C22 16.66 22 17.32 22 18 C12.70461094 15.9399408 3.54779112 13.27389556 -5 9 C-5 8.01 -5 7.02 -5 6 C-3.68 6 -2.36 6 -1 6 C-0.67 4.02 -0.34 2.04 0 0 Z " fill="#F2EBE9" transform="translate(123,116)"/>
<path d="M0 0 C17.71428571 3.71428571 17.71428571 3.71428571 21 7 C20.01 7.66 19.02 8.32 18 9 C17.01 10.485 17.01 10.485 16 12 C15.278125 11.38125 14.55625 10.7625 13.8125 10.125 C9.42503628 6.81002741 5.63456088 5.76876344 0.1875 5.375 C-0.78832031 5.30023438 -1.76414062 5.22546875 -2.76953125 5.1484375 C-3.50558594 5.09945312 -4.24164063 5.05046875 -5 5 C-5 4.67 -5 4.34 -5 4 C-3.35 4 -1.7 4 0 4 C0 2.68 0 1.36 0 0 Z " fill="#E9E2E3" transform="translate(120,154)"/>
<path d="M0 0 C3.63 0 7.26 0 11 0 C12.24546405 2.49092811 11.7767578 3.41080733 11 6 C9.3501725 5.57781184 7.70516335 5.13675575 6.0625 4.6875 C5.14597656 4.44386719 4.22945313 4.20023438 3.28515625 3.94921875 C2.53105469 3.63597656 1.77695312 3.32273438 1 3 C0.67 2.01 0.34 1.02 0 0 Z " fill="#F0E9EA" transform="translate(300,130)"/>
<path d="M0 0 C0.33 0 0.66 0 1 0 C0.25 6.625 0.25 6.625 -2 10 C-4.1640625 10.51171875 -4.1640625 10.51171875 -6.625 10.6875 C-7.44226563 10.75324219 -8.25953125 10.81898437 -9.1015625 10.88671875 C-9.72804687 10.92410156 -10.35453125 10.96148437 -11 11 C-10.525625 10.54625 -10.05125 10.0925 -9.5625 9.625 C-7.90972192 8.06741796 -7.90972192 8.06741796 -7 6 C-6.195625 5.71125 -5.39125 5.4225 -4.5625 5.125 C-1.86394485 4.22949848 -1.86394485 4.22949848 -0.6875 1.875 C-0.460625 1.25625 -0.23375 0.6375 0 0 Z " fill="#E5DFDE" transform="translate(167,93)"/>
<path d="M0 0 C4.455 0.99 4.455 0.99 9 2 C8.67 3.32 8.34 4.64 8 6 C3.71 5.67 -0.58 5.34 -5 5 C-5 4.67 -5 4.34 -5 4 C-3.35 4 -1.7 4 0 4 C0 2.68 0 1.36 0 0 Z " fill="#DED7D7" transform="translate(120,154)"/>
<path d="M0 0 C5.28 0.66 10.56 1.32 16 2 C16 2.33 16 2.66 16 3 C14.02 3.33 12.04 3.66 10 4 C10 4.66 10 5.32 10 6 C4.06 4.515 4.06 4.515 -2 3 C-1.34 2.67 -0.68 2.34 0 2 C0 1.34 0 0.68 0 0 Z " fill="#DBD6D6" transform="translate(135,128)"/>
<path d="M0 0 C2.31 0.66 4.62 1.32 7 2 C6.67 3.32 6.34 4.64 6 6 C1.71 5.67 -2.58 5.34 -7 5 C-7 4.67 -7 4.34 -7 4 C-5.02 3.67 -3.04 3.34 -1 3 C-0.67 2.01 -0.34 1.02 0 0 Z " fill="#D8D2D2" transform="translate(283,154)"/>
<path d="M0 0 C1.9375 0.5625 1.9375 0.5625 4 2 C4.75 5.625 4.75 5.625 5 9 C4.67 8.01 4.34 7.02 4 6 C1.99983534 4.79117904 1.99983534 4.79117904 0 4 C0 2.68 0 1.36 0 0 Z " fill="#E4DDDD" transform="translate(160,172)"/>
<path d="M0 0 C3.63 0 7.26 0 11 0 C11 0.33 11 0.66 11 1 C7.26513121 1.5745952 3.78706732 2 0 2 C0 1.34 0 0.68 0 0 Z " fill="#D3CECE" transform="translate(300,130)"/>
</svg>
